<?xml version="1.0" encoding="utf-8"?>
<!-- Generator: Adobe Illustrator 25.3.1, SVG Export Plug-In . SVG Version: 6.00 Build 0)  -->
<svg version="1.1" id="DISEÑO" xmlns="http://www.w3.org/2000/svg" xmlns:xlink="http://www.w3.org/1999/xlink" x="0px" y="0px"
	 viewBox="0 0 709.75 145.5" style="enable-background:new 0 0 709.75 145.5;" xml:space="preserve">
<style type="text/css">
	.st0{fill-rule:evenodd;clip-rule:evenodd;fill:#FF6600;}
</style>
<g>
	<g>
		<path d="M13.79,145.5H0v-42.07c0-16.97,13.79-30.76,30.76-30.76c9.72,0,18.21,4.42,23.86,11.49c5.66-7.07,14.32-11.49,24.04-11.49
			c16.97,0,30.58,13.79,30.58,30.76v42.07H95.63v-42.07c0-9.37-7.6-17.15-16.97-17.15c-9.55,0-17.15,7.78-17.15,17.15v42.07H47.91
			v-42.07c0-9.37-7.78-17.15-17.15-17.15s-16.97,7.78-16.97,17.15V145.5z"/>
		<path d="M242.37,109.08c0-19.98,16.26-36.42,36.42-36.42c20.15,0,36.42,16.44,36.42,36.42c0,2.47-0.35,4.77-0.71,6.89h-57.45
			c2.83,9.19,11.49,15.91,21.74,15.91c6.36,0,12.02-2.65,16.26-6.72h16.44c-5.83,12.02-18.38,20.33-32.7,20.33
			C258.64,145.5,242.37,129.23,242.37,109.08z M257.05,102.36h43.49c-3.01-9.19-11.67-15.91-21.74-15.91
			C268.54,86.45,259.88,93.17,257.05,102.36z"/>
		<path d="M339.42,145.5h-13.61v-36.42c0-20.15,16.26-36.42,36.42-36.42c20.15,0,36.42,16.26,36.42,36.42v36.42h-13.61v-36.42
			c0-12.55-10.25-22.8-22.8-22.8c-12.55,0-22.8,10.25-22.8,22.8V145.5z"/>
		<path d="M422.85,145.5h-13.61v-36.42c0-20.15,16.26-36.42,36.42-36.42c20.15,0,36.42,16.26,36.42,36.42v36.42h-13.61v-36.42
			c0-12.55-10.25-22.8-22.8-22.8c-12.55,0-22.8,10.25-22.8,22.8V145.5z"/>
		<path d="M506.46,58.88h-13.79V45.27h13.79V58.88z M492.68,72.67h13.79v72.83h-13.79V72.67z"/>
		<path d="M576.29,72.67h13.61v36.42c0,20.15-16.26,36.42-36.42,36.42c-20.15,0-36.42-16.26-36.42-36.42V72.67h13.61v36.42
			c0,12.55,10.25,22.8,22.8,22.8c12.55,0,22.8-10.25,22.8-22.8V72.67z"/>
		<path d="M614.29,145.5H600.5v-42.07c0-16.97,13.79-30.76,30.76-30.76c9.72,0,18.21,4.42,23.86,11.49
			c5.66-7.07,14.32-11.49,24.04-11.49c16.97,0,30.58,13.79,30.58,30.76v42.07h-13.61v-42.07c0-9.37-7.6-17.15-16.97-17.15
			c-9.55,0-17.15,7.78-17.15,17.15v42.07h-13.61v-42.07c0-9.37-7.78-17.15-17.15-17.15c-9.37,0-16.97,7.78-16.97,17.15V145.5z"/>
	</g>
	<g>
		<g>
			<path class="st0" d="M258.11,29.61c-14.72-0.54-27.86,1.11-39.27,4.54c-19.66,5.41-42.02,16.03-61.67,31.3
				c10.37-4.97,19.85-9.08,28.73-12.35c-22.19,22.04-25.99,56.72-6.98,91.81C172.98,91.91,195.83,51.37,258.11,29.61z"/>
			<path class="st0" d="M206.11,34.55c5.85,0.01,10.61-4.73,10.62-10.58c0.01-5.85-4.73-10.61-10.58-10.62
				c-5.86-0.01-10.61,4.73-10.62,10.58C195.52,29.79,200.26,34.55,206.11,34.55z"/>
			<path class="st0" d="M221.13,144.9c0.61-60.77,35.17-103.1,108.63-119.11C250.26,10.28,204.72,68.23,221.13,144.9z"/>
			<path class="st0" d="M274.27,24.07c6.62,0.82,12.65-3.88,13.47-10.51c0.82-6.62-3.88-12.65-10.51-13.47
				c-6.62-0.82-12.66,3.89-13.47,10.51C262.94,17.22,267.65,23.25,274.27,24.07z"/>
			<path class="st0" d="M169.8,64.6c-8.25,3.43-15.17,7.06-20.77,10.97c-11.24,7.23-22.43,16.24-32.42,26.73
				c6.37-4.32,12.38-8.17,18.14-11.6c-7.43,13.99-3.19,31.34,12.69,54.2C140.24,112.05,140.31,89.79,169.8,64.6z"/>
			<path class="st0" d="M144.02,75.63c3.23-1.05,5-4.52,3.95-7.75c-1.05-3.23-4.52-5-7.76-3.95c-3.23,1.05-5,4.52-3.95,7.76
				C137.31,74.92,140.78,76.69,144.02,75.63z"/>
		</g>
	</g>
</g>
</svg>
